<svg width="48" height="40" viewBox="0 0 48 40" fill="none" xmlns="http://www.w3.org/2000/svg">
<rect width="48" height="40" rx="3" fill="white" fill-opacity="0.01"/>
<rect width="24" height="24" transform="translate(12 8)" fill="white" fill-opacity="0.01"/>
<path d="M31 13H31.006C32.107 13 33 13.895 33 14.994V27.006C32.9997 27.5348 32.7896 28.0418 32.4157 28.4157C32.0418 28.7896 31.5348 28.9997 31.006 29H18.994C18.4652 28.9997 17.9582 28.7896 17.5843 28.4157C17.2104 28.0418 17.0003 27.5348 17 27.006V27H30C30.555 27 31 26.552 31 26V13ZM15 13.006C15 11.898 15.897 11 17.006 11H26.994C28.102 11 29 11.897 29 13.006V22.994C29.0001 23.2575 28.9483 23.5184 28.8476 23.7618C28.7468 24.0053 28.5991 24.2264 28.4128 24.4128C28.2264 24.5991 28.0053 24.7468 27.7618 24.8476C27.5184 24.9483 27.2575 25.0001 26.994 25H17.006C16.7425 25.0001 16.4816 24.9483 16.2382 24.8476C15.9947 24.7468 15.7736 24.5991 15.5873 24.4128C15.401 24.2264 15.2532 24.0053 15.1524 23.7618C15.0517 23.5184 14.9999 23.2575 15 22.994V13.006ZM17 13V23H27V13H17ZM18 16C18 15.448 18.453 15 18.997 15H25.003C25.553 15 26 15.444 26 16C26 16.552 25.547 17 25.003 17H18.997C18.8658 17.0001 18.7358 16.9743 18.6146 16.9241C18.4934 16.8738 18.3833 16.8001 18.2907 16.7072C18.198 16.6143 18.1246 16.504 18.0748 16.3826C18.0249 16.2612 17.9995 16.1312 18 16ZM18 19C18 18.448 18.453 18 18.997 18H25.003C25.553 18 26 18.444 26 19C26 19.552 25.547 20 25.003 20H18.997C18.8658 20.0001 18.7358 19.9743 18.6146 19.9241C18.4934 19.8738 18.3833 19.8001 18.2907 19.7072C18.198 19.6143 18.1246 19.504 18.0748 19.3826C18.0249 19.2612 17.9995 19.1312 18 19Z" fill="#42526E"/>
</svg>
