<svg width="80" height="80" viewBox="0 0 80 80" fill="none" xmlns="http://www.w3.org/2000/svg">
<path d="M39.3738 6.93182L41.4236 8.73329H44.1985L39.3535 4.47522L34.6417 8.73329H37.3804L39.3738 6.93182Z" fill="#6554C0"/>
<path d="M63.1521 50.0193C63.1521 50.3455 63.109 50.6626 63.03 50.9676L46.0626 40.3759L62.2167 27.0506C62.8038 27.7517 63.1521 28.6221 63.1521 29.5641V50.0193ZM58.4709 54.2151H20.7292C19.148 54.2151 17.7484 53.5082 16.9005 52.429L39.6 38.2591L62.2995 52.429C61.4516 53.5082 60.052 54.2151 58.4709 54.2151ZM16.048 50.0193V29.5641C16.048 28.9104 16.2159 28.2911 16.5147 27.7389L33.3208 40.2615L16.1701 50.9676C16.0911 50.6626 16.048 50.3455 16.048 50.0193ZM64.162 26.3509L64.2053 26.3164L59.3334 22.0347V24.4734L61.3249 26.2236H61.2984C61.3038 26.2274 61.3093 26.2307 61.3146 26.2344L59.3334 27.8687L56.6667 30.0684L44.9858 39.7037L39.6 36.3417L34.4074 39.5831L20.5334 29.2453V14.7999C20.5334 12.5575 22.3576 10.7332 24.6 10.7332H53.2667C55.5091 10.7332 57.3334 12.5575 57.3334 14.7999V29.5062L58.6667 28.4024V14.7999C58.6667 11.8223 56.2443 9.3999 53.2667 9.3999H24.6C21.6224 9.3999 19.2 11.8223 19.2 14.7999V28.2517L19.965 28.8217L19.8728 28.753L18.5333 27.755L17.3269 26.8561L18.5333 25.7658V23.2907L15.2879 26.2236H15.1291C14.4163 27.1806 14 28.3296 14 29.5641V50.0193C14 53.3451 17.0187 56.0509 20.7292 56.0509H58.4709C62.1814 56.0509 65.2 53.3451 65.2 50.0193V29.5641C65.2 28.3836 64.8187 27.2819 64.162 26.3509Z" fill="#6554C0"/>
<path d="M43.8958 22.9048H35.4409V20.476H35.4645L35.4514 20.2347C35.445 20.1141 35.4419 20.0134 35.4419 19.9179C35.4419 17.1827 37.3379 14.9574 39.6684 14.9574C41.9988 14.9574 43.8948 17.1827 43.8948 19.9179C43.8948 20.0133 43.8918 20.1139 43.8852 20.2347L43.8721 20.476H43.8958V22.9048ZM40.4144 28.4668V31.767H39.2776V28.4856C38.4576 28.2829 37.8566 27.6248 37.8566 26.8436C37.8566 25.901 38.7314 25.1368 39.8104 25.1368C40.8896 25.1368 41.7643 25.901 41.7643 26.8436C41.7643 27.602 41.1978 28.2446 40.4144 28.4668ZM45.8141 22.9048H45.1746V20.0821H45.1726C45.174 20.0266 45.1746 19.9718 45.1746 19.9179C45.1746 16.4973 42.7045 13.7145 39.6684 13.7145C36.6322 13.7145 34.162 16.4973 34.162 19.9179C34.162 19.9928 34.1638 20.07 34.1664 20.1477H34.162V22.9048H33.6647C33.1958 22.9048 32.8121 23.2594 32.8121 23.6926V33.1456C32.8121 33.5788 33.1958 33.9333 33.6647 33.9333H45.8141C46.283 33.9333 46.6667 33.5788 46.6667 33.1456V23.6926C46.6667 23.2594 46.283 22.9048 45.8141 22.9048Z" fill="#6554C0"/>
</svg>
