<svg width="80" height="80" viewBox="0 0 80 80" fill="none" xmlns="http://www.w3.org/2000/svg">
<path d="M63.152 50.0193C63.152 50.3455 63.1089 50.6627 63.03 50.9677L46.0626 40.3759L62.2167 27.0506C62.8038 27.7517 63.152 28.6222 63.152 29.5642V50.0193ZM58.4709 54.2153H20.7291C19.1479 54.2153 17.7484 53.5083 16.9005 52.4292L39.6 38.2591L62.2995 52.4291C61.4516 53.5083 60.052 54.2153 58.4709 54.2153ZM16.048 50.0193V29.5642C16.048 28.9104 16.2159 28.2912 16.5147 27.739L33.3208 40.2614L16.1701 50.9677C16.0911 50.6627 16.048 50.3455 16.048 50.0193ZM39.3738 6.93182L61.3249 26.2237H61.2984C61.3037 26.2274 61.3093 26.2308 61.3146 26.2345L44.9858 39.7037L39.6 36.3417L34.4074 39.5832L17.3269 26.8561L39.3738 6.93182ZM64.162 26.3509L64.2052 26.3165L39.3535 4.47522L15.2879 26.2237H15.1291C14.4163 27.1807 14 28.3296 14 29.5642V50.0193C14 53.3452 17.0187 56.051 20.7291 56.051H58.4709C62.1814 56.051 65.2 53.3452 65.2 50.0193V29.5642C65.2 28.3836 64.8186 27.2819 64.162 26.3509Z" fill="#6554C0"/>
<path d="M41.2871 24.9395C41.1477 25.5348 40.9712 26.1205 40.7575 26.696C40.6502 26.9743 40.4898 27.2767 40.2762 27.6041C40.062 27.9317 39.8053 28.2099 39.5059 28.4379C39.2059 28.6663 38.869 28.8202 38.4949 28.8993C38.1203 28.9789 37.7296 28.9095 37.3234 28.691C37.0877 28.5718 36.8951 28.3835 36.7457 28.1253C36.5958 27.8675 36.4889 27.5743 36.4248 27.2468C36.3605 26.9193 36.3335 26.5821 36.3445 26.2346C36.3551 25.8875 36.4137 25.5647 36.521 25.267C36.5637 25.0883 36.6654 24.7859 36.826 24.3589C36.9864 23.9321 37.2 23.5057 37.4679 23.0786C37.7351 22.6519 38.0667 22.2701 38.4627 21.9323C38.8585 21.595 39.3023 21.4261 39.7947 21.4261C40.3082 21.4261 40.7199 21.595 41.0304 21.9323C41.3403 22.2701 41.4957 22.6767 41.4957 23.153C41.4957 23.7484 41.426 24.3439 41.2871 24.9395ZM38.7195 34.4522C39.7997 34.581 40.8909 34.5565 41.9932 34.3777C43.095 34.1991 44.1701 33.8613 45.2187 33.3653L45.1545 31.6683C43.7424 32.3033 42.4746 32.6954 41.3513 32.8444C40.2279 32.9933 39.1097 32.9285 37.9975 32.6509C37.1629 32.4521 36.3871 32.1297 35.6705 31.6832C34.9534 31.2365 34.3385 30.7007 33.8251 30.0755C33.3115 29.4501 32.9049 28.7505 32.6055 27.9763C32.3055 27.2023 32.1561 26.3685 32.1561 25.4753C32.1561 24.3439 32.3432 23.3515 32.7179 22.498C33.0919 21.6449 33.5307 20.9199 34.0337 20.3246C34.5361 19.7291 35.0391 19.2629 35.5421 18.9251C36.0446 18.5878 36.4137 18.3595 36.6494 18.2403C36.9915 18.0616 37.4999 17.9029 38.1739 17.7639C38.8479 17.6253 39.5861 17.5658 40.3885 17.5853C41.1909 17.6053 42.0253 17.7445 42.8919 18.0021C43.7584 18.2603 44.5553 18.707 45.2829 19.342C46.16 20.1161 46.7272 20.9796 46.984 21.9323C47.2407 22.885 47.2994 23.8183 47.1605 24.7309C47.0211 25.6442 46.7217 26.4877 46.2618 27.2617C45.8014 28.0359 45.3041 28.6119 44.7694 28.9887C44.2769 29.3263 43.8653 29.4999 43.5338 29.5097C43.2018 29.52 42.9505 29.4255 42.7795 29.2268C42.608 29.0287 42.5068 28.7556 42.4746 28.4081C42.4425 28.0611 42.4796 27.6986 42.5869 27.3214C42.7153 26.8449 42.9185 25.9666 43.1967 24.6863C43.4746 23.4061 43.8276 21.8033 44.2559 19.8779H42.3301L42.1376 20.7413C41.8594 20.4241 41.5063 20.1807 41.0785 20.0118C40.6502 19.8435 40.2225 19.7589 39.7947 19.7589C39.1313 19.7589 38.527 19.8928 37.9813 20.1608C37.4357 20.4287 36.9543 20.7762 36.5371 21.2029C36.1198 21.6299 35.7669 22.111 35.4779 22.6469C35.1891 23.1827 34.9695 23.7289 34.82 24.2845C34.6916 24.8203 34.6003 25.3665 34.5472 25.922C34.4935 26.4779 34.5151 27.0137 34.6114 27.5297C34.7077 28.0461 34.9003 28.5323 35.1891 28.9887C35.4779 29.4456 35.9001 29.8326 36.4569 30.1499C37.2055 30.5271 37.9919 30.6361 38.8159 30.4774C39.6393 30.3187 40.3293 29.9515 40.8859 29.3757L40.9181 29.3162C40.9181 29.3362 40.923 29.3511 40.9341 29.3607C40.9447 29.3711 40.9501 29.3859 40.9501 29.4055C41.1637 29.8223 41.4847 30.1401 41.9129 30.3582C42.3407 30.5763 42.7956 30.7054 43.277 30.7453C43.7584 30.7849 44.2399 30.7453 44.7213 30.6263C45.2027 30.5071 45.6144 30.3089 45.9569 30.0307C46.4273 29.6933 46.8501 29.2863 47.2246 28.8099C47.5987 28.3336 47.9197 27.8229 48.1875 27.2767C48.4548 26.731 48.6579 26.1704 48.7973 25.5945C48.9362 25.019 49.0059 24.4631 49.0059 23.9271C49.0059 22.7763 48.7973 21.7043 48.3801 20.7116C47.9628 19.7192 47.326 18.846 46.4705 18.0915C45.7854 17.536 45.0151 17.0843 44.1596 16.7368C43.3037 16.3897 42.4155 16.1562 41.4957 16.037C40.5755 15.918 39.6503 15.9133 38.7195 16.0221C37.7888 16.1315 36.8951 16.3451 36.0397 16.6624C35.141 17.0195 34.3331 17.5061 33.6165 18.1213C32.8994 18.7367 32.2895 19.4365 31.787 20.2203C31.284 21.0045 30.8989 21.843 30.6317 22.7362C30.3638 23.6294 30.2305 24.5226 30.2305 25.4158C30.2305 26.0909 30.3157 26.751 30.4873 27.3958C30.6583 28.0411 30.8724 28.6462 31.1291 29.2119C31.3859 29.7776 31.6797 30.2889 32.0117 30.7453C32.3432 31.2017 32.6697 31.5789 32.9907 31.8768C33.7819 32.6108 34.6645 33.1914 35.6385 33.6185C36.6118 34.0451 37.6389 34.3228 38.7195 34.4522Z" fill="#6554C0"/>
</svg>
