<?xml version="1.0" encoding="UTF-8" standalone="no"?>
<!DOCTYPE svg PUBLIC "-//W3C//DTD SVG 1.1//EN" "http://www.w3.org/Graphics/SVG/1.1/DTD/svg11.dtd">
<svg width="16" height="16" viewBox="0 0 16 16" version="1.1" xmlns="http://www.w3.org/2000/svg" xmlns:xlink="http://www.w3.org/1999/xlink" xml:space="preserve" xmlns:serif="http://www.serif.com/" style="fill-rule:evenodd;clip-rule:evenodd;stroke-linejoin:round;stroke-miterlimit:2;">
    <g transform="matrix(1,0,0,1,-703.962,-2307.83)">
        <g transform="matrix(1,0,0,1,127.184,323.967)">
            <g transform="matrix(595.14,0,0,595.14,537.393,2428.28)">
                <path d="M0.814,0.172C0.815,0.156 0.799,0.141 0.779,0.141C0.7,0.14 0.633,0.118 0.493,0.013C0.487,0.009 0.485,0.006 0.485,0.003C0.485,-0.001 0.492,-0.003 0.501,-0.005C0.68,-0.037 0.798,-0.177 0.798,-0.372C0.798,-0.589 0.643,-0.745 0.435,-0.745C0.227,-0.745 0.071,-0.589 0.071,-0.372C0.071,-0.197 0.165,-0.07 0.303,-0.021C0.358,-0.002 0.387,0.005 0.435,0.042C0.545,0.126 0.65,0.197 0.774,0.198C0.802,0.198 0.812,0.189 0.814,0.172ZM0.435,-0.057C0.27,-0.057 0.137,-0.182 0.137,-0.372C0.137,-0.458 0.032,-0.66 0.077,-0.714C0.132,-0.78 0.344,-0.69 0.435,-0.69C0.525,-0.69 0.727,-0.79 0.782,-0.724C0.827,-0.67 0.733,-0.458 0.733,-0.372C0.733,-0.182 0.6,-0.057 0.435,-0.057Z" style="fill:rgb(70,221,143);fill-rule:nonzero;"/>
            </g>
        </g>
    </g>
</svg>
