<svg width="24" height="25" viewBox="0 0 24 25" fill="none" xmlns="http://www.w3.org/2000/svg">
<rect width="24" height="24" transform="matrix(1 0 0 -1 0 24.0156)" fill="white" fill-opacity="0.01"/>
<path fill-rule="evenodd" clip-rule="evenodd" d="M4 12.0156V5.01562C3.99684 4.88564 4.01982 4.75635 4.06758 4.63542C4.11533 4.51449 4.18689 4.40438 4.278 4.31162C4.36955 4.21849 4.47862 4.14438 4.59893 4.09358C4.71923 4.04278 4.84841 4.01628 4.979 4.01562H6V13.0156H4.98C4.84941 13.015 4.72023 12.9885 4.59993 12.9377C4.47962 12.8869 4.37055 12.8128 4.279 12.7196C4.18771 12.6269 4.11597 12.5169 4.06804 12.3959C4.02011 12.275 3.99698 12.1457 4 12.0156ZM19.281 12.9756C18.9939 13.3098 18.6377 13.5777 18.237 13.7609C17.8363 13.9441 17.4006 14.0382 16.96 14.0366H14.326C14.366 14.2176 14.406 14.3966 14.436 14.5686C14.951 17.5026 14.436 18.5686 13.932 19.1626C13.7029 19.431 13.4181 19.6463 13.0974 19.7936C12.7768 19.9409 12.4279 20.0167 12.075 20.0156C11.3314 19.9932 10.621 19.7022 10.0753 19.1965C9.5297 18.6907 9.1857 18.0044 9.107 17.2646C8.714 15.4256 8.653 15.2646 8.139 14.5396L7.371 13.4506C7.13695 13.116 7.01034 12.718 7.008 12.3096V6.03662C7.009 5.50462 7.224 4.99562 7.604 4.62062C7.984 4.24562 8.5 4.03562 9.037 4.03662H16.284C16.9999 4.03046 17.6946 4.27934 18.2438 4.7387C18.7929 5.19806 19.1606 5.83789 19.281 6.54362L19.958 10.5436C20.0312 10.9738 20.0085 11.4149 19.8915 11.8353C19.7744 12.2557 19.566 12.6451 19.281 12.9756ZM17.283 6.87562C17.2423 6.64053 17.1194 6.42755 16.9362 6.27463C16.7531 6.1217 16.5216 6.03878 16.283 6.04062H9.038V12.3096L9.805 13.3986C10.5256 14.441 10.9733 15.6475 11.107 16.9076C11.143 17.4506 11.362 18.1166 12.076 18.0156C12.79 17.9156 12.651 16.0996 12.439 14.9156C12.2235 13.9342 11.9334 12.9708 11.571 12.0336L16.961 12.0416C17.258 12.0426 17.541 11.9136 17.734 11.6896C17.8291 11.579 17.8986 11.4488 17.9377 11.3083C17.9767 11.1678 17.9843 11.0204 17.96 10.8766L17.284 6.87562H17.283Z" fill="#FF5630"/>
</svg>
