<svg width="24" height="25" viewBox="0 0 24 25" fill="none" xmlns="http://www.w3.org/2000/svg">
<rect width="24" height="24" transform="translate(0 0.015625)" fill="white" fill-opacity="0.01"/>
<path fill-rule="evenodd" clip-rule="evenodd" d="M4 12.0156V19.0156C3.99684 19.1456 4.01982 19.2749 4.06758 19.3958C4.11533 19.5168 4.18688 19.6269 4.278 19.7196C4.36954 19.8128 4.47861 19.8869 4.59892 19.9377C4.71923 19.9885 4.8484 20.015 4.979 20.0156H6V11.0156H4.98C4.8494 11.0163 4.72023 11.0428 4.59992 11.0936C4.47961 11.1444 4.37054 11.2185 4.279 11.3116C4.1877 11.4043 4.11597 11.5144 4.06804 11.6353C4.02011 11.7562 3.99697 11.8856 4 12.0156ZM19.281 11.0556C18.9939 10.7214 18.6377 10.4535 18.237 10.2703C17.8363 10.0872 17.4006 9.9931 16.96 9.99463H14.326C14.366 9.81363 14.406 9.63463 14.436 9.46263C14.951 6.52863 14.436 5.46263 13.932 4.86863C13.7029 4.60024 13.4181 4.38492 13.0974 4.23762C12.7768 4.09032 12.4279 4.01457 12.075 4.01563C11.3313 4.03804 10.621 4.32905 10.0753 4.8348C9.52969 5.34055 9.1857 6.02682 9.107 6.76663C8.714 8.60563 8.653 8.76663 8.139 9.49163L7.371 10.5806C7.13695 10.9153 7.01034 11.3133 7.008 11.7216V17.9946C7.009 18.5266 7.224 19.0356 7.604 19.4106C7.984 19.7856 8.5 19.9956 9.037 19.9946H16.284C16.9999 20.0008 17.6946 19.7519 18.2438 19.2926C18.7929 18.8332 19.1606 18.1934 19.281 17.4876L19.958 13.4876C20.0312 13.0574 20.0085 12.6163 19.8915 12.1959C19.7744 11.7755 19.566 11.3861 19.281 11.0556ZM17.283 17.1556C17.2423 17.3907 17.1194 17.6037 16.9362 17.7566C16.7531 17.9095 16.5216 17.9925 16.283 17.9906H9.038V11.7216L9.805 10.6326C10.5256 9.59024 10.9733 8.38377 11.107 7.12363C11.143 6.58063 11.362 5.91463 12.076 6.01563C12.79 6.11563 12.651 7.93163 12.439 9.11563C12.2235 10.097 11.9334 11.0605 11.571 11.9976L16.961 11.9896C17.258 11.9886 17.541 12.1176 17.734 12.3416C17.8291 12.4522 17.8986 12.5824 17.9376 12.7229C17.9767 12.8634 17.9843 13.0108 17.96 13.1546L17.284 17.1556H17.283Z" fill="#36B37E"/>
</svg>
