<svg width="80" height="80" viewBox="0 0 80 80" fill="none" xmlns="http://www.w3.org/2000/svg">
<path d="M46.212 30.1952C45.8828 29.8661 45.3496 29.8661 45.0204 30.1952L38.7035 36.512C38.544 36.4647 38.3785 36.4316 38.2036 36.4316C38.0287 36.4316 37.8632 36.4647 37.7036 36.512L33.5365 32.3448C33.2073 32.0157 32.674 32.0157 32.3448 32.3448C32.0156 32.674 32.0156 33.2073 32.3448 33.5365L36.512 37.7036C36.4647 37.8632 36.4316 38.0287 36.4316 38.2036C36.4316 39.1822 37.225 39.9756 38.2036 39.9756C39.1822 39.9756 39.9756 39.1822 39.9756 38.2036C39.9756 38.0287 39.9424 37.8632 39.8952 37.7036L46.212 31.3869C46.5411 31.0577 46.5411 30.5244 46.212 30.1952Z" fill="#DE350B"/>
<path d="M42.4443 57.5475C41.0436 57.853 39.6166 58.0078 38.2036 58.0078C27.2835 58.0078 18.3995 49.1237 18.3995 38.2036C18.3995 27.2835 27.2835 18.3995 38.2036 18.3995C49.1237 18.3995 58.0078 27.2835 58.0078 38.2036C58.0078 39.6166 57.853 41.0436 57.5475 42.4443C57.4243 43.0122 57.7846 43.5734 58.3534 43.6978C58.9193 43.8221 59.4825 43.4598 59.6065 42.8922C59.9433 41.3447 60.1145 39.7672 60.1145 38.2036C60.1145 26.1215 50.2856 16.2927 38.2036 16.2927C26.1215 16.2927 16.2927 26.1215 16.2927 38.2036C16.2927 50.2856 26.1215 60.1145 38.2036 60.1145C39.7672 60.1145 41.3447 59.9433 42.8922 59.6065C43.4606 59.4825 43.8213 58.9213 43.6978 58.3534C43.5734 57.7846 43.0082 57.4219 42.4443 57.5475Z" fill="#DE350B"/>
<path d="M53.3266 46.4759C53.7486 46.6795 54.2501 46.5047 54.4533 46.0868C55.6664 43.5918 56.2812 40.9392 56.2812 38.2036C56.2812 28.2357 48.1714 20.1261 38.2036 20.1261C28.2357 20.1261 20.1261 28.2357 20.1261 38.2036C20.1261 48.1714 28.2357 56.2812 38.2036 56.2812C40.9284 56.2812 43.5726 55.6704 46.0612 54.4657C46.4803 54.2621 46.6555 53.7586 46.4531 53.3398C46.2508 52.9226 45.7504 52.7462 45.3272 52.9478C43.327 53.9169 41.2179 54.4601 39.0463 54.5721V52.4443H37.3609V54.5529C33.4774 54.3541 29.9537 52.8046 27.2423 50.3564L28.7295 48.8693L27.5378 47.6778L26.0506 49.1649C23.6026 46.4535 22.0531 42.9298 21.8543 39.0463H23.9628V37.3609H21.8543C22.0531 33.4774 23.6026 29.9537 26.0506 27.2423L27.5378 28.7295L28.7295 27.5378L27.2423 26.0506C29.9537 23.6026 33.4774 22.0531 37.3609 21.8543V23.9628H39.0463V21.8543C42.9298 22.0531 46.4535 23.6026 49.1649 26.0506L47.6778 27.5378L48.8693 28.7295L50.3564 27.2423C52.8046 29.9537 54.3541 33.4774 54.5529 37.3609H52.4443V39.0463H54.5717C54.4593 41.2267 53.9125 43.3438 52.9374 45.3496C52.7338 45.7684 52.9086 46.2727 53.3266 46.4759Z" fill="#DE350B"/>
<path d="M61.3176 60.078L60.0781 61.3175L54.7141 55.9528L49.3493 61.3175L48.1106 60.078L53.4746 54.7141L48.1106 49.3493L49.3493 48.1106L54.7141 53.4746L60.0781 48.1106L61.3176 49.3493L55.9528 54.7141L61.3176 60.078ZM63.701 49.3493L60.0781 45.7272L54.7141 51.0911L49.3493 45.7272L45.7272 49.3493L51.0912 54.7141L45.7272 60.078L49.3493 63.7009L54.7141 58.3362L60.0781 63.7009L63.701 60.078L58.3362 54.7141L63.701 49.3493Z" fill="#DE350B"/>
</svg>
